<svg width="537" height="233" viewBox="0 0 537 233" fill="none" xmlns="http://www.w3.org/2000/svg">
<path d="M108 27.58C97.37 24.1905 81.0001 22.58 79.5 25.58C78 28.58 77.5 38.58 77.5 38.58L76 39.58C70.4527 42.9102 65.8512 39.8445 59.5 41.08C52.4681 42.4479 48.4824 43.5307 42 46.58C35.2372 49.7613 31.7466 52.3016 26.0001 57.08C21.3289 60.9643 18.8001 63.3401 15 68.08C10.8311 73.2799 8.63689 76.4591 6 82.58C3.13321 89.2346 2.69371 93.4332 1.5 100.58C0.562134 106.195 0 109.387 0 115.08C0 120.773 0.351593 124.004 1.5 129.58C3.04478 137.08 4.41061 141.316 8 148.08C12.0458 155.704 15.2833 159.592 21.5 165.58C26.9286 170.809 30.553 173.176 37 177.08C44.0228 181.333 47.9439 184.497 56 186.08C62.3227 187.323 66.0564 186.08 72.5 186.08C78.7484 186.08 82.3644 187.262 88.5 186.08C93.1691 185.181 95.6468 183.993 100 182.08C107.788 178.658 113.052 177.113 118.5 170.58C120.86 167.751 121.573 165.72 123.5 162.58C125.882 158.699 129.5 158.438 129.5 152.58V137.58C129.5 131.722 126.783 128.54 123.5 123.58C119.842 118.054 117.219 114.929 111.5 111.58C104.756 107.631 99.8143 106.949 92 107.08C85.6048 107.187 81.7858 107.853 76 110.58C70.9483 112.961 68.1933 114.891 64.5 119.08C60.8 123.277 58.8963 126.162 57.5 131.58C56.1356 136.874 55.5728 140.464 57.5 145.58C58.6456 148.621 59.8924 150.106 62 152.58C65.3433 156.504 67.7587 158.557 72.5 160.58C77.4019 162.672 80.6959 163.101 86 162.58C89.205 162.265 91.085 161.949 94 160.58C97.6438 158.869 99.5524 157.276 102 154.08C104.231 151.167 105.217 149.164 106 145.58C106.75 142.146 108.287 139.249 106 136.58C103.331 133.467 98.7943 134.138 95.5 136.58C93.3207 138.195 92 142.58 92 142.58L88.5 145.58C85.2614 147.636 82.7078 149.065 79 148.08C75.7862 147.227 73.8554 145.616 72.5 142.58C71.2266 139.727 71.4354 137.517 72.5 134.58C73.3122 132.339 74.4672 131.405 76 129.58C78.6698 126.401 80.2207 124.298 84 122.58C87.5952 120.946 90.0553 120.898 94 121.08C98.0212 121.266 100.496 121.598 104 123.58C107.007 125.281 108.485 126.774 110.5 129.58C113.059 133.145 113.84 135.742 114.5 140.08C114.97 143.169 115.144 145.023 114.5 148.08C113.893 150.962 113.012 152.478 111.544 155.004L111.5 155.08C108.1 160.931 105.115 164.182 99 167.08C95.7415 168.624 93.6467 168.973 90.123 169.56L90 169.58C80.8962 171.096 74.7734 171.17 66.5 167.08C60.1767 163.954 56.8448 160.994 53 155.08C49.0953 149.074 47.8721 144.734 47.5 137.58C47.2132 132.065 47.6642 128.789 49.5 123.58C51.4815 117.958 53.3464 114.856 57.5 110.58C63.2225 104.689 67.9697 102.301 76 100.58C90 97.58 134 101.08 142.5 100.58C151 100.08 150 93.58 150 93.58L148.5 80.08C148.5 80.08 146.913 66.7886 143.5 59.08C140.584 52.4931 138.349 48.9075 133.5 43.58C125.587 34.8854 119.201 31.1515 108 27.58Z" fill="#2E7D45"/>
<path d="M178.564 153.731C178.564 159.059 179.818 163.228 182.325 166.237C184.895 169.183 188.406 170.657 192.857 170.657H197.182C202.134 170.657 206.428 167.742 210.064 161.912C213.763 156.019 215.612 148.779 215.612 140.19V133.89C215.612 124.362 213.7 116.745 209.876 111.041C206.115 105.336 201.476 102.484 195.96 102.484H194.361C188.155 102.484 183.861 104.615 181.479 108.878C179.097 113.078 177.906 121.917 177.906 135.395V137.275L178 138.216V142.823L178.094 143.764C178.094 144.39 178.094 145.017 178.094 145.644L178.47 151.944C178.532 152.571 178.564 153.167 178.564 153.731ZM161.826 180.248C157.25 180.248 154.21 179.464 152.705 177.897C151.263 176.267 150.542 174.324 150.542 172.067C150.542 169.81 151.138 164.952 152.329 157.492C153.52 149.97 154.116 144.798 154.116 141.977L154.21 139.72V130.505L154.304 125.898V109.63C154.304 85.3702 153.99 71.4849 153.363 67.9744C152.737 64.4639 151.201 61.737 148.756 59.7937C144.556 56.4086 142.456 54.1518 142.456 53.0235C142.456 50.3906 144.932 48.4159 149.884 47.0995C157.156 45.1562 163.017 44.1845 167.468 44.1845H169.631C174.27 44.1845 177.059 46.0338 178 49.7324C178.626 52.2399 178.94 59.543 178.94 71.6417C178.94 83.7403 179.097 90.4792 179.41 91.8584C179.912 94.0524 181.541 95.1495 184.3 95.1495C184.3 95.1495 185.115 94.8674 186.745 94.3032C194.204 91.6703 200.567 90.3539 205.833 90.3539C217.179 90.3539 226.175 94.5853 232.82 103.048C239.465 111.448 242.787 121.635 242.787 133.608V135.959C242.787 142.353 241.471 148.622 238.838 154.765C233.76 166.739 225.736 174.919 214.766 179.307C208.811 181.69 202.981 182.881 197.276 182.881H195.019C193.139 182.881 190.255 182.473 186.368 181.658C182.482 180.843 178.532 180.436 174.52 180.436L172.452 180.248C170.32 180.06 168.91 179.966 168.22 179.966L166.058 180.06C164.177 180.185 162.767 180.248 161.826 180.248ZM345.631 174.418C345.631 176.737 343.719 178.461 339.895 179.59C336.134 180.655 329.771 181.188 320.807 181.188C311.905 181.188 306.577 180.561 304.821 179.307C303.066 178.054 302.189 176.581 302.189 174.888C302.189 173.133 302.972 170.5 304.539 166.989C306.169 163.479 307.172 160.658 307.548 158.527C307.924 156.395 308.113 149.186 308.113 136.899C308.113 124.613 307.047 116.244 304.915 111.793C302.847 107.279 298.741 105.023 292.597 105.023C286.454 105.023 281.47 107.687 277.646 113.015C275.076 116.589 273.791 123.139 273.791 132.668C273.791 148.402 275.233 159.937 278.117 167.271C279.872 171.534 280.749 174.292 280.749 175.546C280.749 177.928 279.308 179.433 276.424 180.06C273.54 180.624 267.272 180.906 257.618 180.906C248.027 180.906 242.228 180.279 240.222 179.025C238.216 177.709 237.213 175.954 237.213 173.76C237.213 171.566 238.874 169.371 242.197 167.177C245.519 164.983 247.4 163.009 247.838 161.253C248.277 159.435 248.497 151.474 248.497 137.369C248.497 123.202 248.027 114.927 247.086 112.545C246.146 110.1 244.265 107.279 241.444 104.082C238.623 100.885 237.213 99.2555 237.213 99.1928V97.2182C237.213 96.1525 237.997 95.1808 239.564 94.3032C245.018 91.1688 253.136 89.6016 263.918 89.6016C266.927 89.6016 269.434 91.0748 271.44 94.0211C273.509 96.9674 275.014 98.4406 275.954 98.4406C276.894 98.4406 279.088 97.4376 282.536 95.4316C286.047 93.3629 287.958 92.2658 288.272 92.1405C293.287 89.821 297.957 88.6613 302.283 88.6613H305.292C316.262 88.6613 324.098 93.0494 328.799 101.826C331.808 107.53 333.313 121.227 333.313 142.917C333.313 154.515 333.689 161.128 334.441 162.758C335.194 164.388 337.231 166.268 340.553 168.4C343.938 170.468 345.631 172.474 345.631 174.418ZM381.901 100.415H380.114C374.723 100.415 370.304 103.456 366.856 109.536C363.471 115.617 361.778 122.889 361.778 131.351V136.617C361.778 146.146 363.753 154.201 367.702 160.783C371.651 167.365 376.384 170.657 381.901 170.657H383.687C388.514 170.657 392.714 168.212 396.288 163.322C399.923 158.37 401.741 151.788 401.741 143.576L401.929 141.601L402.023 137.652V136.617L401.929 135.583V133.608C401.804 132.229 401.741 131.226 401.741 130.599C401.741 122.262 399.767 115.147 395.817 109.254C391.868 103.362 387.229 100.415 381.901 100.415ZM381.995 87.9091H386.696C392.276 87.9091 398.011 89.2255 403.904 91.8584C415.125 96.8734 422.836 105.023 427.036 116.306C429.167 122.136 430.233 128.092 430.233 134.172V135.865C430.233 142.384 428.916 148.779 426.283 155.047C423.651 161.316 420.109 166.519 415.658 170.657C406.38 179.057 395.723 183.257 383.687 183.257C382.747 183.257 381.807 183.225 380.866 183.163C374.848 183.163 368.924 181.972 363.094 179.59C357.327 177.145 352.594 173.916 348.896 169.904C340.934 161.128 336.954 150.126 336.954 136.899V135.301L337.048 133.702C337.111 127.872 338.208 122.105 340.339 116.401C344.476 105.493 352.061 97.4376 363.094 92.2345C369.301 89.3509 375.601 87.9091 381.995 87.9091ZM475.906 41.5517H478.539C484.18 41.5517 489.133 42.5547 493.395 44.5607C496.404 45.9398 497.909 48.3219 497.909 51.707C497.909 55.0295 497.063 57.8191 495.37 60.0758C493.74 62.2699 491.515 63.3669 488.694 63.3669C485.936 63.3669 482.676 62.7714 478.915 61.5803C475.153 60.3266 473.085 59.6997 472.709 59.6997C469.888 59.6997 467.506 61.1102 465.562 63.9311C463.682 66.6893 462.741 70.3252 462.741 74.8387C462.741 79.3522 463.462 82.8 464.904 85.1822C465.155 85.621 468.32 87.627 474.401 91.2002C478.664 93.7077 480.795 96.4972 480.795 99.5689C480.795 101.763 478.194 103.894 472.991 105.963C467.85 107.969 464.935 109.756 464.246 111.323C462.741 114.833 461.989 122.889 461.989 135.489C461.989 138.874 461.958 141.381 461.895 143.011L461.801 145.456L461.895 150.346C461.895 156.426 462.616 160.94 464.058 163.886C464.371 164.576 466.346 166.645 469.982 170.092C473.68 173.477 475.53 176.392 475.53 178.837C475.53 181.219 473.837 182.755 470.452 183.445C467.067 184.134 462.208 184.479 455.877 184.479H450.705C441.866 184.479 434.689 184.103 429.172 183.351C426.414 182.975 425.035 181.439 425.035 178.743C425.035 177.552 426.414 175.421 429.172 172.349C431.993 169.277 433.905 165.391 434.908 160.689C435.911 155.925 436.413 147.18 436.413 134.455C436.413 121.666 435.974 114.018 435.096 111.511C434.218 109.003 432.401 106.809 429.642 104.929C426.884 103.048 425.505 101.073 425.505 99.0047C425.505 98.2525 426.947 95.6823 429.83 91.2942C432.777 86.8434 434.626 82.8941 435.378 79.4462C439.265 62.0191 447.696 50.4219 460.673 44.6547C465.374 42.586 470.452 41.5517 475.906 41.5517ZM488.009 59.0415C488.009 55.4056 489.42 52.3339 492.241 49.8264C495.124 47.3189 498.227 46.0652 501.55 46.0652H504.559C505.499 46.2532 506.283 46.3472 506.91 46.3472C509.919 46.3472 512.583 47.695 514.902 50.3906C517.222 53.0862 518.381 55.6563 518.381 58.1012V60.546C518.256 61.1728 518.193 61.643 518.193 61.9564C518.193 64.5893 516.72 67.1595 513.774 69.667C510.828 72.1745 507.568 73.4282 503.995 73.4282H501.08C497.569 73.4282 494.529 72.3312 491.959 70.1372C489.451 67.8804 488.197 65.3102 488.197 62.4266L488.009 61.4863V59.0415ZM505.875 181.376H496.942C488.605 181.376 483.59 181.157 481.897 180.718C480.267 180.216 479.453 178.869 479.453 176.675C479.453 174.418 481.02 171.722 484.154 168.588C487.288 165.453 489.263 162.319 490.078 159.185C490.893 155.988 491.3 147.744 491.3 134.455C491.3 121.102 490.956 113.235 490.266 110.853C489.577 108.471 487.414 106.433 483.778 104.741C480.205 102.985 478.418 100.917 478.418 98.5346C478.418 96.0898 480.079 94.3032 483.402 93.1748C490.924 90.6673 499.23 89.4136 508.32 89.4136H509.731C513.366 89.4136 515.466 90.9494 516.031 94.0211C516.344 95.7763 516.501 106.308 516.501 125.616C516.501 144.861 516.908 156.144 517.723 159.467C518.601 162.727 520.795 166.206 524.305 169.904C527.816 173.603 529.571 175.922 529.571 176.863V177.991C529.571 180.248 521.673 181.376 505.875 181.376Z" fill="black"/>
</svg>
